<svg width="67" height="62" viewBox="0 0 67 62" fill="none" xmlns="http://www.w3.org/2000/svg">
<rect width="67" height="62" rx="31" fill="#EB0606"/>
<path d="M30.7343 1.66348C26.7309 1.66348 23.1842 5.22276 21.3303 8.55978C20.2551 10.4952 19.4495 12.8251 19.4495 15.0846C19.4495 17.1206 22.3842 15.9365 23.6058 15.2239C24.8598 14.4924 27.0277 13.6828 27.9944 12.7161C28.7469 11.9636 27.8605 10.4085 28.4124 9.5118C29.2894 8.08659 29.0266 6.29891 29.8984 4.91426C30.9062 3.31363 29.2959 4.46008 28.6678 5.1929C28.085 5.87284 27.2881 5.76602 26.7405 6.46999C25.1936 8.45886 25.5937 10.8862 24.047 12.9483" stroke="#09F82F" stroke-width="3" stroke-linecap="round"/>
<path d="M56.6477 22.1434C56.6477 25.1753 58.7375 27.3551 58.7375 30.5258C58.7375 32.0505 58.7375 33.5753 58.7375 35.1001C58.7375 36.6143 58.0535 37.3908 57.5765 38.7688C56.7437 41.1747 53.0814 42.6547 52.4681 45.1078C52.0049 46.961 49.4201 48.5359 47.8706 49.3106" stroke="white" stroke-width="3" stroke-linecap="round"/>
<path d="M52.0502 16.292C53.685 16.292 53.7181 15.874 52.0502 15.874" stroke="white" stroke-width="3" stroke-linecap="round"/>
</svg>
