<svg width="287" height="134" viewBox="0 0 287 134" fill="none" xmlns="http://www.w3.org/2000/svg">
<g clip-path="url(#clip0_24_15)">
<rect width="287" height="134" fill="white"/>
<path d="M59 24H287" stroke="black" stroke-linecap="round" stroke-dasharray="2 2"/>
<path d="M59 44H287" stroke="black" stroke-linecap="round" stroke-dasharray="2 2"/>
<path d="M59 67H287" stroke="black" stroke-linecap="round" stroke-dasharray="2 2"/>
<path d="M59 88H287" stroke="black" stroke-linecap="round" stroke-dasharray="2 2"/>
<path d="M59 111H287" stroke="black" stroke-linecap="round" stroke-dasharray="2 2"/>
<path d="M18.856 18.088H19.816V28.936H18.856V18.088ZM17.14 22.384H19.216V23.2H17.14V22.384ZM16.456 18.316H17.404V28.396H16.456V18.316ZM10.984 19.336H15.124V26.032H10.984V19.336ZM14.188 20.128H11.92V25.24H14.188V20.128ZM21.6271 24.304H31.4671V25.12H21.6271V24.304ZM26.0191 24.808H27.0031V28.936H26.0191V24.808ZM26.5231 18.52C28.7911 18.52 30.3151 19.444 30.3151 20.896C30.3151 22.348 28.7911 23.272 26.5231 23.272C24.2671 23.272 22.7311 22.348 22.7311 20.896C22.7311 19.444 24.2671 18.52 26.5231 18.52ZM26.5231 19.324C24.8671 19.324 23.7391 19.936 23.7391 20.896C23.7391 21.856 24.8671 22.468 26.5231 22.468C28.1791 22.468 29.2951 21.856 29.2951 20.896C29.2951 19.936 28.1791 19.324 26.5231 19.324ZM40.3221 18.088H41.3061V28.936H40.3221V18.088ZM40.7421 22.324H42.7461V23.152H40.7421V22.324ZM32.8701 19.096H33.7221V21.88H35.0421V19.096H35.8701V26.308H32.8701V19.096ZM33.7221 22.672V25.492H35.0421V22.672H33.7221ZM36.4461 19.096H37.2861V21.88H38.5701V19.096H39.4101V26.308H36.4461V19.096ZM37.2861 22.672V25.492H38.5701V22.672H37.2861ZM43.7052 23.68H53.5452V24.496H43.7052V23.68ZM44.9532 18.352H52.2732V20.92H45.9612V22.36H44.9772V20.188H51.3012V19.132H44.9532V18.352ZM44.9772 21.976H52.5132V22.756H44.9772V21.976ZM45.0252 25.48H52.2852V28.792H45.0252V25.48ZM51.3132 26.272H45.9972V27.988H51.3132V26.272Z" fill="black"/>
<path d="M10.6 46.716H20.428V47.544H10.6V46.716ZM15.016 44.088H16V46.992H15.016V44.088ZM14.992 39.456H15.832V40.128C15.832 42.348 13.612 44.028 11.476 44.472L11.068 43.68C12.94 43.368 14.992 41.844 14.992 40.128V39.456ZM15.172 39.456H16.012V40.128C16.012 41.844 18.076 43.332 19.972 43.644L19.576 44.436C17.404 44.004 15.172 42.348 15.172 40.128V39.456ZM11.404 39.072H19.6V39.888H11.404V39.072ZM22.8871 38.652H29.8711V39.468H22.8871V38.652ZM21.6391 42.648H31.4671V43.464H21.6391V42.648ZM29.2231 38.652H30.1951V39.456C30.1951 40.38 30.1951 41.436 29.8351 42.936L28.8631 42.888C29.2231 41.4 29.2231 40.356 29.2231 39.456V38.652ZM22.8391 44.94H30.2311V48.792H22.8391V44.94ZM29.2591 45.732H23.8111V47.988H29.2591V45.732ZM40.3221 38.088H41.3061V48.936H40.3221V38.088ZM40.7421 42.324H42.7461V43.152H40.7421V42.324ZM32.8701 39.096H33.7221V41.88H35.0421V39.096H35.8701V46.308H32.8701V39.096ZM33.7221 42.672V45.492H35.0421V42.672H33.7221ZM36.4461 39.096H37.2861V41.88H38.5701V39.096H39.4101V46.308H36.4461V39.096ZM37.2861 42.672V45.492H38.5701V42.672H37.2861ZM43.7052 43.68H53.5452V44.496H43.7052V43.68ZM44.9532 38.352H52.2732V40.92H45.9612V42.36H44.9772V40.188H51.3012V39.132H44.9532V38.352ZM44.9772 41.976H52.5132V42.756H44.9772V41.976ZM45.0252 45.48H52.2852V48.792H45.0252V45.48ZM51.3132 46.272H45.9972V47.988H51.3132V46.272Z" fill="black"/>
<path d="M10.6 69.728H20.428V70.556H10.6V69.728ZM14.992 67.136H15.988V69.968H14.992V67.136ZM11.752 61.856H12.736V63.788H18.268V61.856H19.252V67.4H11.752V61.856ZM12.736 64.592V66.584H18.268V64.592H12.736ZM21.6271 66.836H31.4311V67.64H21.6271V66.836ZM26.0311 65.432H27.0151V67.172H26.0311V65.432ZM22.9231 64.988H30.2791V65.768H22.9231V64.988ZM22.9231 61.4H30.2311V62.18H23.9071V65.408H22.9231V61.4ZM23.6191 63.176H29.9431V63.944H23.6191V63.176ZM26.5231 68.444C28.8871 68.444 30.2431 69.044 30.2431 70.184C30.2431 71.312 28.8871 71.912 26.5231 71.912C24.1591 71.912 22.8031 71.312 22.8031 70.184C22.8031 69.044 24.1591 68.444 26.5231 68.444ZM26.5231 69.2C24.7831 69.2 23.8111 69.548 23.8111 70.184C23.8111 70.832 24.7831 71.168 26.5231 71.168C28.2631 71.168 29.2351 70.832 29.2351 70.184C29.2351 69.548 28.2631 69.2 26.5231 69.2Z" fill="black"/>
<path d="M11.8 86.984H19.312V87.812H11.8V86.984ZM10.6 90.62H20.428V91.448H10.6V90.62ZM11.8 83.036H12.796V87.356H11.8V83.036ZM29.5231 82.088H30.5311V88.52H29.5231V82.088ZM22.1911 87.188H23.0671C25.0351 87.188 26.4871 87.128 28.2271 86.852L28.3351 87.656C26.5471 87.956 25.0831 88.016 23.0671 88.016H22.1911V87.188ZM22.1671 82.736H27.0871V85.7H23.1631V87.68H22.1911V84.932H26.1151V83.552H22.1671V82.736ZM23.5231 89.12H30.5311V92.792H23.5231V89.12ZM29.5471 89.912H24.4951V91.988H29.5471V89.912Z" fill="black"/>
<path d="M15.928 107.824H18.796V108.652H15.928V107.824ZM13.552 105.7C15.16 105.7 16.348 106.756 16.348 108.268C16.348 109.78 15.16 110.824 13.552 110.824C11.932 110.824 10.756 109.78 10.756 108.268C10.756 106.756 11.932 105.7 13.552 105.7ZM13.552 106.552C12.484 106.552 11.716 107.248 11.716 108.268C11.716 109.288 12.484 109.996 13.552 109.996C14.608 109.996 15.388 109.288 15.388 108.268C15.388 107.248 14.608 106.552 13.552 106.552ZM18.52 105.088H19.516V111.316H18.52V105.088ZM12.484 111.88H19.516V115.792H12.484V111.88ZM18.544 112.672H13.456V114.988H18.544V112.672ZM24.3391 106.936H25.1551V107.404C25.1551 109.288 23.9551 110.872 22.1431 111.484L21.6631 110.704C23.2591 110.188 24.3391 108.868 24.3391 107.404V106.936ZM24.5191 106.936H25.3351V107.404C25.3351 108.748 26.4511 109.96 28.0471 110.428L27.5911 111.208C25.7671 110.644 24.5191 109.18 24.5191 107.404V106.936ZM21.9391 106.396H27.7231V107.2H21.9391V106.396ZM24.3391 105.04H25.3351V106.684H24.3391V105.04ZM27.3991 108.172H29.8471V109H27.3991V108.172ZM29.5591 105.088H30.5551V111.652H29.5591V105.088ZM26.9911 111.94C29.2351 111.94 30.6031 112.672 30.6031 113.932C30.6031 115.18 29.2351 115.912 26.9911 115.912C24.7351 115.912 23.3671 115.18 23.3671 113.932C23.3671 112.672 24.7351 111.94 26.9911 111.94ZM26.9911 112.72C25.3471 112.72 24.3631 113.164 24.3631 113.932C24.3631 114.688 25.3471 115.132 26.9911 115.132C28.6231 115.132 29.6191 114.688 29.6191 113.932C29.6191 113.164 28.6231 112.72 26.9911 112.72ZM33.8781 109.984H41.3901V110.812H33.8781V109.984ZM32.6781 113.62H42.5061V114.448H32.6781V113.62ZM33.8781 106.036H34.8741V110.356H33.8781V106.036ZM51.6012 105.088H52.6092V111.52H51.6012V105.088ZM44.2692 110.188H45.1452C47.1132 110.188 48.5652 110.128 50.3052 109.852L50.4132 110.656C48.6252 110.956 47.1612 111.016 45.1452 111.016H44.2692V110.188ZM44.2452 105.736H49.1652V108.7H45.2412V110.68H44.2692V107.932H48.1932V106.552H44.2452V105.736ZM45.6012 112.12H52.6092V115.792H45.6012V112.12ZM51.6252 112.912H46.5732V114.988H51.6252V112.912Z" fill="black"/>
</g>
<defs>
<clipPath id="clip0_24_15">
<rect width="287" height="134" fill="white"/>
</clipPath>
</defs>
</svg>
