<svg width="598" height="800" viewBox="0 0 598 800" fill="none" xmlns="http://www.w3.org/2000/svg">
<g clip-path="url(#clip0_21_21)">
<rect width="598" height="800" fill="white"/>
<rect x="-1" width="600" height="800" fill="#B2C0BE"/>
<rect x="1" y="463" width="598" height="64" fill="#4E6266" fill-opacity="0.6"/>
<rect x="1" y="399" width="598" height="64" fill="#5B7D85" fill-opacity="0.7"/>
<rect x="1" y="335" width="598" height="64" fill="#7CA5AE" fill-opacity="0.8"/>
<rect x="-2" y="271" width="598" height="64" fill="#95BFC9" fill-opacity="0.9"/>
<rect x="1" y="207" width="598" height="64" fill="#8EB6BF"/>
<path d="M56 104L598 104" stroke="#672016" stroke-width="3" stroke-linecap="round"/>
<path d="M56 102C63.3339 102 67.7782 101.718 74.5556 98.5556C82.204 94.9863 92.2066 89 100.667 89C112.259 89 123.852 89 135.444 89C147.045 89 160.663 91.0607 171.944 88.3889C177.945 86.9676 183.858 84.043 189.667 82C196.207 79.6994 203.704 75.3317 210.5 74.1667C220.677 72.422 232.293 74 242.667 74C255.519 74 268.37 74 281.222 74C289.294 74 297.274 73.8543 305.333 73.2222C311.563 72.7337 317.818 73.1844 324.056 72.9444C331.379 72.6628 338.492 70.5484 345.778 69.7778C380.902 66.0628 416.335 66.2438 451.667 67.2222C471.266 67.765 492.129 71.6934 511.444 67.2222C520.983 65.0142 530.685 64.6613 540 62" stroke="#702615" stroke-width="3" stroke-linecap="round"/>
<path d="M535 64C544.189 64 551.141 57 560.444 57C567.534 57 572.324 59.8172 579.056 61.5C584.366 62.8277 590.524 62 596 62" stroke="#702615" stroke-width="3" stroke-linecap="round"/>
<path d="M9.856 234.088H10.816V244.936H9.856V234.088ZM8.14 238.384H10.216V239.2H8.14V238.384ZM7.456 234.316H8.404V244.396H7.456V234.316ZM1.984 235.336H6.124V242.032H1.984V235.336ZM5.188 236.128H2.92V241.24H5.188V236.128ZM12.6271 240.304H22.4671V241.12H12.6271V240.304ZM17.0191 240.808H18.0031V244.936H17.0191V240.808ZM17.5231 234.52C19.7911 234.52 21.3151 235.444 21.3151 236.896C21.3151 238.348 19.7911 239.272 17.5231 239.272C15.2671 239.272 13.7311 238.348 13.7311 236.896C13.7311 235.444 15.2671 234.52 17.5231 234.52ZM17.5231 235.324C15.8671 235.324 14.7391 235.936 14.7391 236.896C14.7391 237.856 15.8671 238.468 17.5231 238.468C19.1791 238.468 20.2951 237.856 20.2951 236.896C20.2951 235.936 19.1791 235.324 17.5231 235.324ZM31.3221 234.088H32.3061V244.936H31.3221V234.088ZM31.7421 238.324H33.7461V239.152H31.7421V238.324ZM23.8701 235.096H24.7221V237.88H26.0421V235.096H26.8701V242.308H23.8701V235.096ZM24.7221 238.672V241.492H26.0421V238.672H24.7221ZM27.4461 235.096H28.2861V237.88H29.5701V235.096H30.4101V242.308H27.4461V235.096ZM28.2861 238.672V241.492H29.5701V238.672H28.2861ZM34.7052 239.68H44.5452V240.496H34.7052V239.68ZM35.9532 234.352H43.2732V236.92H36.9612V238.36H35.9772V236.188H42.3012V235.132H35.9532V234.352ZM35.9772 237.976H43.5132V238.756H35.9772V237.976ZM36.0252 241.48H43.2852V244.792H36.0252V241.48ZM42.3132 242.272H36.9972V243.988H42.3132V242.272Z" fill="black"/>
<path d="M9.244 298.088H10.228V308.936H9.244V298.088ZM9.664 302.324H11.668V303.152H9.664V302.324ZM1.792 299.096H2.644V301.88H3.964V299.096H4.792V306.308H1.792V299.096ZM2.644 302.672V305.492H3.964V302.672H2.644ZM5.368 299.096H6.208V301.88H7.492V299.096H8.332V306.308H5.368V299.096ZM6.208 302.672V305.492H7.492V302.672H6.208ZM12.6271 303.68H22.4671V304.496H12.6271V303.68ZM13.8751 298.352H21.1951V300.92H14.8831V302.36H13.8991V300.188H20.2231V299.132H13.8751V298.352ZM13.8991 301.976H21.4351V302.756H13.8991V301.976ZM13.9471 305.48H21.2071V308.792H13.9471V305.48ZM20.2351 306.272H14.9191V307.988H20.2351V306.272Z" fill="black"/>
<path d="M1.6 370.728H11.428V371.556H1.6V370.728ZM5.992 368.136H6.988V370.968H5.992V368.136ZM2.752 362.856H3.736V364.788H9.268V362.856H10.252V368.4H2.752V362.856ZM3.736 365.592V367.584H9.268V365.592H3.736ZM12.6271 367.836H22.4311V368.64H12.6271V367.836ZM17.0311 366.432H18.0151V368.172H17.0311V366.432ZM13.9231 365.988H21.2791V366.768H13.9231V365.988ZM13.9231 362.4H21.2311V363.18H14.9071V366.408H13.9231V362.4ZM14.6191 364.176H20.9431V364.944H14.6191V364.176ZM17.5231 369.444C19.8871 369.444 21.2431 370.044 21.2431 371.184C21.2431 372.312 19.8871 372.912 17.5231 372.912C15.1591 372.912 13.8031 372.312 13.8031 371.184C13.8031 370.044 15.1591 369.444 17.5231 369.444ZM17.5231 370.2C15.7831 370.2 14.8111 370.548 14.8111 371.184C14.8111 371.832 15.7831 372.168 17.5231 372.168C19.2631 372.168 20.2351 371.832 20.2351 371.184C20.2351 370.548 19.2631 370.2 17.5231 370.2Z" fill="black"/>
<path d="M2.8 430.984H10.312V431.812H2.8V430.984ZM1.6 434.62H11.428V435.448H1.6V434.62ZM2.8 427.036H3.796V431.356H2.8V427.036ZM20.5231 426.088H21.5311V432.52H20.5231V426.088ZM13.1911 431.188H14.0671C16.0351 431.188 17.4871 431.128 19.2271 430.852L19.3351 431.656C17.5471 431.956 16.0831 432.016 14.0671 432.016H13.1911V431.188ZM13.1671 426.736H18.0871V429.7H14.1631V431.68H13.1911V428.932H17.1151V427.552H13.1671V426.736ZM14.5231 433.12H21.5311V436.792H14.5231V433.12ZM20.5471 433.912H15.4951V435.988H20.5471V433.912Z" fill="black"/>
<path d="M6.928 492.824H9.796V493.652H6.928V492.824ZM4.552 490.7C6.16 490.7 7.348 491.756 7.348 493.268C7.348 494.78 6.16 495.824 4.552 495.824C2.932 495.824 1.756 494.78 1.756 493.268C1.756 491.756 2.932 490.7 4.552 490.7ZM4.552 491.552C3.484 491.552 2.716 492.248 2.716 493.268C2.716 494.288 3.484 494.996 4.552 494.996C5.608 494.996 6.388 494.288 6.388 493.268C6.388 492.248 5.608 491.552 4.552 491.552ZM9.52 490.088H10.516V496.316H9.52V490.088ZM3.484 496.88H10.516V500.792H3.484V496.88ZM9.544 497.672H4.456V499.988H9.544V497.672ZM15.3391 491.936H16.1551V492.404C16.1551 494.288 14.9551 495.872 13.1431 496.484L12.6631 495.704C14.2591 495.188 15.3391 493.868 15.3391 492.404V491.936ZM15.5191 491.936H16.3351V492.404C16.3351 493.748 17.4511 494.96 19.0471 495.428L18.5911 496.208C16.7671 495.644 15.5191 494.18 15.5191 492.404V491.936ZM12.9391 491.396H18.7231V492.2H12.9391V491.396ZM15.3391 490.04H16.3351V491.684H15.3391V490.04ZM18.3991 493.172H20.8471V494H18.3991V493.172ZM20.5591 490.088H21.5551V496.652H20.5591V490.088ZM17.9911 496.94C20.2351 496.94 21.6031 497.672 21.6031 498.932C21.6031 500.18 20.2351 500.912 17.9911 500.912C15.7351 500.912 14.3671 500.18 14.3671 498.932C14.3671 497.672 15.7351 496.94 17.9911 496.94ZM17.9911 497.72C16.3471 497.72 15.3631 498.164 15.3631 498.932C15.3631 499.688 16.3471 500.132 17.9911 500.132C19.6231 500.132 20.6191 499.688 20.6191 498.932C20.6191 498.164 19.6231 497.72 17.9911 497.72ZM24.8781 494.984H32.3901V495.812H24.8781V494.984ZM23.6781 498.62H33.5061V499.448H23.6781V498.62ZM24.8781 491.036H25.8741V495.356H24.8781V491.036ZM42.6012 490.088H43.6092V496.52H42.6012V490.088ZM35.2692 495.188H36.1452C38.1132 495.188 39.5652 495.128 41.3052 494.852L41.4132 495.656C39.6252 495.956 38.1612 496.016 36.1452 496.016H35.2692V495.188ZM35.2452 490.736H40.1652V493.7H36.2412V495.68H35.2692V492.932H39.1932V491.552H35.2452V490.736ZM36.6012 497.12H43.6092V500.792H36.6012V497.12ZM42.6252 497.912H37.5732V499.988H42.6252V497.912Z" fill="black"/>
</g>
<defs>
<clipPath id="clip0_21_21">
<rect width="598" height="800" fill="white"/>
</clipPath>
</defs>
</svg>
